<svg id="Layer_1" data-name="Layer 1" xmlns="http://www.w3.org/2000/svg" viewBox="0 0 512 512"><defs><style>.cls-1{fill:#89746e;}.cls-2{fill:#75615d;}.cls-3{fill:#8466cc;}.cls-4{fill:#ff6e91;}.cls-5{opacity:0.2;}.cls-6{fill:#231f20;}.cls-7{opacity:0.1;}.cls-8{fill:#cac3e0;}</style></defs><title>chocolate-flat</title><rect class="cls-1" x="121.6" y="19.2" width="268.8" height="179.2"/><line class="cls-1" x1="211.2" y1="19.2" x2="211.2" y2="198.4"/><path class="cls-2" d="M390.4,0H121.6a19.2,19.2,0,0,0-19.2,19.2V198.4a19.2,19.2,0,0,0,19.2,19.2H390.4a19.2,19.2,0,0,0,19.2-19.2V19.2A19.2,19.2,0,0,0,390.4,0ZM371.2,89.6H320V38.4h51.2Zm-140.8,0V38.4h51.2V89.6ZM281.6,128v51.2H230.4V128ZM192,38.4V89.6H140.8V38.4ZM140.8,128H192v51.2H140.8ZM320,179.2V128h51.2v51.2Z"/><path class="cls-3" d="M409.6,198.4V492.8A19.17,19.17,0,0,1,390.4,512H121.6a19.17,19.17,0,0,1-19.2-19.2V166.4a19.25,19.25,0,0,1,21.44-19.07L256,163.07l136.64,16.26A19.23,19.23,0,0,1,409.6,198.4Z"/><path class="cls-4" d="M303.8,376.52a32.85,32.85,0,0,0,0-46.81,33.69,33.69,0,0,0-47.32,0l-.47.47-.47-.47a33.71,33.71,0,0,0-47.32,0,32.83,32.83,0,0,0,0,46.81L256,422.4Z"/><g class="cls-5"><path class="cls-6" d="M110.72,182.22,324,318a19.94,19.94,0,0,0,8.78,2,19.55,19.55,0,0,0,15.38-7.31l59.4-107.79Z"/></g><g class="cls-7"><path class="cls-6" d="M409.6,19.2V492.8A19.17,19.17,0,0,1,390.4,512H256V0H390.4A19.17,19.17,0,0,1,409.6,19.2Z"/></g><path class="cls-8" d="M408.05,190.85a19.19,19.19,0,0,0-15.38-11.51l-268.8-32a19.2,19.2,0,0,0-11.06,36.13L324,292.27a19.2,19.2,0,0,0,24.16-5.55l57.6-76.8A19.2,19.2,0,0,0,408.05,190.85Z"/></svg>